<svg width="259" height="45" viewBox="0 0 259 45" fill="none" xmlns="http://www.w3.org/2000/svg">
<path opacity="0.8" d="M243.548 22.5L259 0H0V26.1V45H259L243.548 22.5Z" fill="#D3D4D5"/>
<path d="M23.3906 15.3145C23.9635 14.804 24.2917 14.4603 24.375 14.2832C24.4792 14.0332 24.6302 13.9082 24.8281 13.9082C25.0365 13.9082 25.151 14.0957 25.1719 14.4707L25.5312 19.9238C25.5312 20.2363 25.5156 20.429 25.4844 20.502C25.4635 20.5645 25.3906 20.5957 25.2656 20.5957C25.099 20.5957 24.9219 20.3717 24.7344 19.9238C24.0469 18.2676 23.0885 16.9082 21.8594 15.8457C20.6198 14.7936 19.276 14.2676 17.8281 14.2676C16.5573 14.2676 15.3906 14.679 14.3281 15.502C13.2656 16.3145 12.4375 17.4811 11.8438 19.002C11.2604 20.5124 10.9688 22.1374 10.9688 23.877C10.9688 26.8353 11.7812 29.2415 13.4062 31.0957C15.0417 32.9395 16.8646 33.8613 18.875 33.8613C20.2396 33.8613 21.4948 33.429 22.6406 32.5645C23.7865 31.6999 24.651 30.6999 25.2344 29.5645C25.3906 29.252 25.5521 29.0957 25.7188 29.0957C25.9479 29.0957 26.0625 29.2207 26.0625 29.4707C26.0625 29.7728 25.6667 30.4342 24.875 31.4551C24.0833 32.4759 23.0417 33.304 21.75 33.9395C20.4688 34.5749 19.0885 34.8926 17.6094 34.8926C15.8698 34.8926 14.2135 34.4499 12.6406 33.5645C11.0781 32.679 9.83854 31.4551 8.92188 29.8926C8.00521 28.3301 7.54688 26.4967 7.54688 24.3926C7.54688 22.3301 7.98958 20.4707 8.875 18.8145C9.77083 17.1582 11.026 15.8717 12.6406 14.9551C14.2552 14.0384 15.9219 13.5801 17.6406 13.5801C18.5573 13.5801 19.4948 13.7259 20.4531 14.0176C21.4115 14.2988 22.3906 14.7311 23.3906 15.3145ZM28.0781 24.1113C28.0781 22.7051 28.5052 21.1634 29.3594 19.4863C30.2135 17.7988 31.4583 16.4082 33.0938 15.3145C34.7396 14.2207 36.5938 13.6738 38.6562 13.6738C41.5417 13.6738 43.9219 14.7051 45.7969 16.7676C47.6823 18.8301 48.625 21.1842 48.625 23.8301C48.625 26.6426 47.5833 29.1686 45.5 31.4082C43.4167 33.6374 40.9115 34.752 37.9844 34.752C35.1823 34.752 32.8281 33.7728 30.9219 31.8145C29.026 29.8561 28.0781 27.2884 28.0781 24.1113ZM31.5625 23.6113C31.5625 25.3092 31.8229 27.054 32.3438 28.8457C32.8646 30.627 33.6823 31.9238 34.7969 32.7363C35.9115 33.5384 37.1042 33.9395 38.375 33.9395C40.4271 33.9395 42.0677 32.9447 43.2969 30.9551C44.5365 28.9551 45.1562 26.6426 45.1562 24.0176C45.1562 21.4759 44.526 19.2467 43.2656 17.3301C42.0052 15.403 40.3594 14.4395 38.3281 14.4395C36.7969 14.4395 35.5208 14.9551 34.5 15.9863C33.4792 17.0072 32.7344 18.2311 32.2656 19.6582C31.7969 21.0853 31.5625 22.403 31.5625 23.6113ZM57.5 14.0176C58.5521 16.2988 59.5312 18.3145 60.4375 20.0645C61.5312 22.1582 62.3802 23.8978 62.9844 25.2832C63.599 26.6686 64.3125 28.0384 65.125 29.3926C67.2812 25.8197 69.7812 20.6947 72.625 14.0176L78.8438 14.0332C79.0625 14.0645 79.1719 14.1582 79.1719 14.3145C79.1719 14.4707 79.0469 14.5592 78.7969 14.5801C77.6927 14.6738 76.9531 14.8978 76.5781 15.252C76.2135 15.5957 75.9844 16.179 75.8906 17.002C75.8073 17.8249 75.724 19.3561 75.6406 21.5957C75.5573 23.8353 75.5156 25.6999 75.5156 27.1895C75.5156 30.054 75.5365 31.7259 75.5781 32.2051C75.6198 32.6738 75.7969 33.0488 76.1094 33.3301C76.4219 33.6113 77.0312 33.8145 77.9375 33.9395C78.1979 33.9811 78.3281 34.0801 78.3281 34.2363C78.3281 34.3926 78.1667 34.4707 77.8438 34.4707L71.7656 34.4551H70.1719C69.8177 34.4551 69.6406 34.3717 69.6406 34.2051C69.6406 34.0592 69.7604 33.9707 70 33.9395C70.875 33.8249 71.4531 33.6634 71.7344 33.4551C72.026 33.2467 72.2396 32.877 72.375 32.3457C72.5208 31.804 72.5938 30.4655 72.5938 28.3301L72.8906 20.8301L73.0469 17.127C73.0469 16.8457 73.0052 16.7051 72.9219 16.7051C72.7969 16.7051 72.6927 16.7884 72.6094 16.9551L69.5156 23.0645C67.5365 26.9707 66.3229 29.4707 65.875 30.5645L64.9062 32.9238C64.6042 33.6426 64.4219 34.0384 64.3594 34.1113C64.2969 34.1738 64.224 34.2051 64.1406 34.2051C64.0156 34.2051 63.9115 34.0697 63.8281 33.7988C63.6406 33.153 62.6771 31.1009 60.9375 27.6426C60.0312 25.6947 58.9427 23.4707 57.6719 20.9707C56.4115 18.4707 55.7292 17.1686 55.625 17.0645C55.5208 16.9499 55.4427 16.8926 55.3906 16.8926C55.2865 16.8926 55.2344 17.0228 55.2344 17.2832L55.0625 26.752L55.0156 29.877C55.0156 31.5332 55.2396 32.6165 55.6875 33.127C56.1458 33.6374 56.7969 33.8926 57.6406 33.8926C58.1823 33.8926 58.4531 34.0072 58.4531 34.2363C58.4531 34.403 58.3229 34.4863 58.0625 34.4863L57.7344 34.4707L56.7188 34.4863L54.5156 34.4707C53.5573 34.4707 52.3229 34.5228 50.8125 34.627C50.6875 34.5436 50.625 34.4603 50.625 34.377C50.625 34.1686 50.8073 34.0592 51.1719 34.0488C52.2135 34.0176 52.9792 33.6738 53.4688 33.0176C53.9583 32.3613 54.2031 30.8926 54.2031 28.6113L54.1719 25.8613L54.3906 18.8926C54.3906 17.2676 54.151 16.1582 53.6719 15.5645C53.1927 14.9603 52.4896 14.6009 51.5625 14.4863C51.1667 14.4342 50.9688 14.3249 50.9688 14.1582C50.9688 13.9707 51.1146 13.877 51.4062 13.877C51.5625 13.877 51.75 13.8822 51.9688 13.8926L57.5 14.0176ZM81.8906 13.8613L84.7344 13.9238L89.0938 13.8613C89.6146 13.8613 89.875 13.9655 89.875 14.1738C89.875 14.3301 89.7344 14.429 89.4531 14.4707C88.2969 14.6165 87.5729 15.0332 87.2812 15.7207C87 16.4082 86.8594 18.9499 86.8594 23.3457C86.8594 24.9603 86.901 26.778 86.9844 28.7988C87.0677 30.8197 87.1615 32.028 87.2656 32.4238C87.3698 32.8197 87.5677 33.1426 87.8594 33.3926C88.151 33.6426 88.6927 33.8197 89.4844 33.9238C89.7448 33.9551 89.875 34.054 89.875 34.2207C89.875 34.4082 89.7552 34.502 89.5156 34.502L85.6406 34.4707L82.3438 34.5176C81.9792 34.5176 81.7969 34.4134 81.7969 34.2051C81.7969 33.9863 81.9427 33.877 82.2344 33.877C83.2031 33.8561 83.7708 33.5332 83.9375 32.9082C84.1042 32.2832 84.1875 30.2884 84.1875 26.9238C84.1875 23.6738 84.1562 21.0436 84.0938 19.0332C84.0417 17.0228 83.875 15.7936 83.5938 15.3457C83.3125 14.8978 82.7812 14.6165 82 14.502C81.7083 14.4499 81.5625 14.3301 81.5625 14.1426C81.5625 13.9551 81.6719 13.8613 81.8906 13.8613ZM97.4531 14.127C98.0781 14.9707 99.1615 16.278 100.703 18.0488L105.703 23.8457L110.516 29.4082C110.62 27.5228 110.672 25.0749 110.672 22.0645C110.672 19.804 110.625 18.2936 110.531 17.5332C110.438 16.7624 110.089 16.1165 109.484 15.5957C108.891 15.0749 108.146 14.8145 107.25 14.8145C106.833 14.8145 106.625 14.7259 106.625 14.5488C106.625 14.4447 106.667 14.3717 106.75 14.3301C106.844 14.278 107.547 14.2311 108.859 14.1895C110.172 14.1374 111.276 14.1113 112.172 14.1113L114.281 14.127H114.625C114.948 14.127 115.109 14.2207 115.109 14.4082C115.109 14.5749 114.969 14.6738 114.688 14.7051C113.635 14.8197 112.875 15.0957 112.406 15.5332C111.948 15.9603 111.672 16.5801 111.578 17.3926C111.495 18.2051 111.453 20.9395 111.453 25.5957L111.297 33.8457C111.297 34.2624 111.193 34.4707 110.984 34.4707C110.932 34.4707 110.859 34.4499 110.766 34.4082C110.682 34.3561 110.219 33.8301 109.375 32.8301C108.531 31.8197 107.49 30.6113 106.25 29.2051C105.021 27.7988 104.052 26.6582 103.344 25.7832C101.792 23.8978 100.812 22.7363 100.406 22.2988C98.8958 20.6947 98.0052 19.6634 97.7344 19.2051C97.5573 18.8926 97.3958 18.7363 97.25 18.7363C97.1354 18.7363 97.0781 18.9395 97.0781 19.3457L97.1094 21.7676C97.1094 24.8405 97.1927 27.2936 97.3594 29.127C97.526 30.9603 97.6979 32.0384 97.875 32.3613C98.0625 32.6738 98.3802 32.9915 98.8281 33.3145C99.2865 33.6374 99.7708 33.7988 100.281 33.7988C100.969 33.7988 101.312 33.9238 101.312 34.1738C101.312 34.3613 101.12 34.4551 100.734 34.4551L93.2188 34.4395C92.8646 34.4395 92.6875 34.3509 92.6875 34.1738C92.6875 33.9655 92.8594 33.8613 93.2031 33.8613C94.4844 33.8613 95.3385 33.5801 95.7656 33.0176C96.1927 32.4447 96.4062 31.2363 96.4062 29.3926L96.2812 23.9082C96.2812 20.6686 96.1927 18.7624 96.0156 18.1895C95.8385 17.6061 95.4375 16.903 94.8125 16.0801C94.1979 15.2467 93.4948 14.778 92.7031 14.6738C92.349 14.6322 92.1719 14.5384 92.1719 14.3926C92.1719 14.1947 92.401 14.0957 92.8594 14.0957L97.4531 14.127ZM136.859 20.5801C136.724 20.5801 136.583 20.4134 136.438 20.0801C135.583 18.2051 134.453 16.7572 133.047 15.7363C131.651 14.7155 130.161 14.2051 128.578 14.2051C127.276 14.2051 126.016 14.6009 124.797 15.3926C123.578 16.1738 122.583 17.3874 121.812 19.0332C121.042 20.6686 120.656 22.4134 120.656 24.2676C120.656 26.9134 121.448 29.1999 123.031 31.127C124.615 33.054 126.594 34.0176 128.969 34.0176C129.812 34.0176 130.531 33.8874 131.125 33.627C131.719 33.3665 132.276 32.9915 132.797 32.502C133.328 32.0124 133.646 31.6478 133.75 31.4082C133.865 31.1686 133.922 30.5384 133.922 29.5176C133.922 27.8092 133.693 26.6842 133.234 26.1426C132.786 25.6009 132.062 25.3301 131.062 25.3301L130.578 25.3457C130.276 25.3457 130.125 25.2467 130.125 25.0488C130.125 24.8092 130.292 24.6895 130.625 24.6895L131.453 24.7207L134.984 24.6738L139.312 24.5801C139.552 24.5801 139.672 24.6895 139.672 24.9082C139.672 25.127 139.536 25.2467 139.266 25.2676C138.62 25.3301 138.094 25.4707 137.688 25.6895C137.281 25.9082 137.031 26.1582 136.938 26.4395C136.844 26.7207 136.797 27.1947 136.797 27.8613C136.797 30.2988 136.74 31.6374 136.625 31.877C136.51 32.1165 135.542 32.6634 133.719 33.5176C131.896 34.3717 130.062 34.7988 128.219 34.7988C125.167 34.7988 122.557 33.8197 120.391 31.8613C118.224 29.903 117.141 27.4238 117.141 24.4238C117.141 22.3613 117.651 20.4967 118.672 18.8301C119.703 17.153 121.109 15.8561 122.891 14.9395C124.672 14.0124 126.484 13.5488 128.328 13.5488C130.057 13.5488 131.922 14.0436 133.922 15.0332C134.484 15.3145 134.88 15.4551 135.109 15.4551C135.432 15.4551 135.682 15.3145 135.859 15.0332C136.016 14.7936 136.156 14.6738 136.281 14.6738C136.521 14.6738 136.661 14.9759 136.703 15.5801C136.766 16.528 136.917 17.9759 137.156 19.9238C137.177 20.028 137.188 20.1217 137.188 20.2051C137.188 20.4551 137.078 20.5801 136.859 20.5801ZM160.828 15.127C161.109 14.8457 161.297 14.554 161.391 14.252C161.474 14.002 161.594 13.877 161.75 13.877C161.833 13.877 161.927 13.929 162.031 14.0332C162.104 14.4082 162.208 15.1634 162.344 16.2988L162.719 19.2363C162.719 19.4238 162.604 19.5176 162.375 19.5176C162.25 19.5176 162.141 19.4134 162.047 19.2051C161.495 17.8405 160.677 16.7051 159.594 15.7988C158.51 14.903 157.328 14.4551 156.047 14.4551C154.786 14.4551 153.833 14.8353 153.188 15.5957C152.552 16.3561 152.234 17.1634 152.234 18.0176C152.234 19.0592 152.583 19.8561 153.281 20.4082C153.979 20.9603 155.417 21.5853 157.594 22.2832C159.198 22.7832 160.396 23.2676 161.188 23.7363C161.99 24.2051 162.661 24.8613 163.203 25.7051C163.745 26.5488 164.016 27.4551 164.016 28.4238C164.016 30.0697 163.333 31.5436 161.969 32.8457C160.604 34.1478 158.932 34.7988 156.953 34.7988C155.172 34.7988 153.38 34.2415 151.578 33.127C151.224 33.4186 150.995 33.7624 150.891 34.1582C150.807 34.4915 150.672 34.6582 150.484 34.6582C150.318 34.6582 150.198 34.4447 150.125 34.0176C150.052 33.5905 149.901 31.5697 149.672 27.9551C149.714 27.8301 149.823 27.7676 150 27.7676C150.156 27.7676 150.281 27.8822 150.375 28.1113C151.979 32.1426 154.219 34.1582 157.094 34.1582C158.521 34.1582 159.635 33.7311 160.438 32.877C161.25 32.0124 161.656 31.0228 161.656 29.9082C161.656 29.1374 161.438 28.429 161 27.7832C160.573 27.1374 160 26.6165 159.281 26.2207C158.573 25.8249 157.448 25.3822 155.906 24.8926C153.927 24.2572 152.578 23.6582 151.859 23.0957C151.151 22.5228 150.63 21.8822 150.297 21.1738C149.964 20.4551 149.797 19.7624 149.797 19.0957C149.797 17.7103 150.422 16.4811 151.672 15.4082C152.932 14.3353 154.474 13.7988 156.297 13.7988C156.984 13.7988 157.703 13.9082 158.453 14.127C159.214 14.3457 160.005 14.679 160.828 15.127ZM166.484 24.1113C166.484 22.7051 166.911 21.1634 167.766 19.4863C168.62 17.7988 169.865 16.4082 171.5 15.3145C173.146 14.2207 175 13.6738 177.062 13.6738C179.948 13.6738 182.328 14.7051 184.203 16.7676C186.089 18.8301 187.031 21.1842 187.031 23.8301C187.031 26.6426 185.99 29.1686 183.906 31.4082C181.823 33.6374 179.318 34.752 176.391 34.752C173.589 34.752 171.234 33.7728 169.328 31.8145C167.432 29.8561 166.484 27.2884 166.484 24.1113ZM169.969 23.6113C169.969 25.3092 170.229 27.054 170.75 28.8457C171.271 30.627 172.089 31.9238 173.203 32.7363C174.318 33.5384 175.51 33.9395 176.781 33.9395C178.833 33.9395 180.474 32.9447 181.703 30.9551C182.943 28.9551 183.562 26.6426 183.562 24.0176C183.562 21.4759 182.932 19.2467 181.672 17.3301C180.411 15.403 178.766 14.4395 176.734 14.4395C175.203 14.4395 173.927 14.9551 172.906 15.9863C171.885 17.0072 171.141 18.2311 170.672 19.6582C170.203 21.0853 169.969 22.403 169.969 23.6113ZM189.828 24.1113C189.828 22.7051 190.255 21.1634 191.109 19.4863C191.964 17.7988 193.208 16.4082 194.844 15.3145C196.49 14.2207 198.344 13.6738 200.406 13.6738C203.292 13.6738 205.672 14.7051 207.547 16.7676C209.432 18.8301 210.375 21.1842 210.375 23.8301C210.375 26.6426 209.333 29.1686 207.25 31.4082C205.167 33.6374 202.661 34.752 199.734 34.752C196.932 34.752 194.578 33.7728 192.672 31.8145C190.776 29.8561 189.828 27.2884 189.828 24.1113ZM193.312 23.6113C193.312 25.3092 193.573 27.054 194.094 28.8457C194.615 30.627 195.432 31.9238 196.547 32.7363C197.661 33.5384 198.854 33.9395 200.125 33.9395C202.177 33.9395 203.818 32.9447 205.047 30.9551C206.286 28.9551 206.906 26.6426 206.906 24.0176C206.906 21.4759 206.276 19.2467 205.016 17.3301C203.755 15.403 202.109 14.4395 200.078 14.4395C198.547 14.4395 197.271 14.9551 196.25 15.9863C195.229 17.0072 194.484 18.2311 194.016 19.6582C193.547 21.0853 193.312 22.403 193.312 23.6113ZM217.516 14.127C218.141 14.9707 219.224 16.278 220.766 18.0488L225.766 23.8457L230.578 29.4082C230.682 27.5228 230.734 25.0749 230.734 22.0645C230.734 19.804 230.688 18.2936 230.594 17.5332C230.5 16.7624 230.151 16.1165 229.547 15.5957C228.953 15.0749 228.208 14.8145 227.312 14.8145C226.896 14.8145 226.688 14.7259 226.688 14.5488C226.688 14.4447 226.729 14.3717 226.812 14.3301C226.906 14.278 227.609 14.2311 228.922 14.1895C230.234 14.1374 231.339 14.1113 232.234 14.1113L234.344 14.127H234.688C235.01 14.127 235.172 14.2207 235.172 14.4082C235.172 14.5749 235.031 14.6738 234.75 14.7051C233.698 14.8197 232.938 15.0957 232.469 15.5332C232.01 15.9603 231.734 16.5801 231.641 17.3926C231.557 18.2051 231.516 20.9395 231.516 25.5957L231.359 33.8457C231.359 34.2624 231.255 34.4707 231.047 34.4707C230.995 34.4707 230.922 34.4499 230.828 34.4082C230.745 34.3561 230.281 33.8301 229.438 32.8301C228.594 31.8197 227.552 30.6113 226.312 29.2051C225.083 27.7988 224.115 26.6582 223.406 25.7832C221.854 23.8978 220.875 22.7363 220.469 22.2988C218.958 20.6947 218.068 19.6634 217.797 19.2051C217.62 18.8926 217.458 18.7363 217.312 18.7363C217.198 18.7363 217.141 18.9395 217.141 19.3457L217.172 21.7676C217.172 24.8405 217.255 27.2936 217.422 29.127C217.589 30.9603 217.76 32.0384 217.938 32.3613C218.125 32.6738 218.443 32.9915 218.891 33.3145C219.349 33.6374 219.833 33.7988 220.344 33.7988C221.031 33.7988 221.375 33.9238 221.375 34.1738C221.375 34.3613 221.182 34.4551 220.797 34.4551L213.281 34.4395C212.927 34.4395 212.75 34.3509 212.75 34.1738C212.75 33.9655 212.922 33.8613 213.266 33.8613C214.547 33.8613 215.401 33.5801 215.828 33.0176C216.255 32.4447 216.469 31.2363 216.469 29.3926L216.344 23.9082C216.344 20.6686 216.255 18.7624 216.078 18.1895C215.901 17.6061 215.5 16.903 214.875 16.0801C214.26 15.2467 213.557 14.778 212.766 14.6738C212.411 14.6322 212.234 14.5384 212.234 14.3926C212.234 14.1947 212.464 14.0957 212.922 14.0957L217.516 14.127Z" fill="white"/>
</svg>
